inDegrees=yes
name=flex_l_res.mot
DataType=double
version=3
OpenSimVersion=4.4-2022-07-23-0e9fedc
endheader
time	pelvis_tilt	pelvis_list	pelvis_rotation	pelvis_tx	pelvis_ty	pelvis_tz	hip_flexion_r	hip_adduction_r	hip_rotation_r	knee_angle_r	knee_angle_r_beta	ankle_angle_r	subtalar_angle_r	mtp_angle_r	hip_flexion_l	hip_adduction_l	hip_rotation_l	knee_angle_l	knee_angle_l_beta	ankle_angle_l	subtalar_angle_l	mtp_angle_l	lumbar_extension	lumbar_bending	lumbar_rotation	arm_flex_r	arm_add_r	arm_rot_r	elbow_flex_r	pro_sup_r	wrist_flex_r	wrist_dev_r	arm_flex_l	arm_add_l	arm_rot_l	elbow_flex_l	pro_sup_l	wrist_flex_l	wrist_dev_l
50	-0.9273821633599352	0.1833441704648325	88.83282648532231	0	0.9399999999999999	0	45.0244491936579	-9.978222105677022	0	59.42666800345641	1.037191020149879	-4.986180508402915	0	0	45.0244491936579	-9.978222105677022	0	59.42666800345641	1.037191020149879	-4.986180508402915	0	0	-1.145335944114767	-2.062618610901098	1.524678806438611	0	-13.15689138232937	0	75.251850082635	45.02332415999023	0	0	0.3415735534850969	-1.353696133147603	-15.26236617533212	78.48706855825773	45.02332415999023	0	0
51	-0.9298663523821501	0.1867362565800031	88.83279964437747	0	0.9399999999999999	0	45.02444107283188	-9.97824742069534	0	59.42681732212666	1.03719362625231	-4.986201468887124	0	0	45.02444107283188	-9.97824742069534	0	59.42681732212666	1.03719362625231	-4.986201468887124	0	0	-1.149530853201456	-2.062654664908101	1.523192442413217	0	-13.15720458129933	0	75.2517664878239	45.02330271958793	0	0	0.3665198065527467	-1.642246232455009	-15.38811733652063	79.31689119611262	45.02330271958793	0	0
52	-0.9295969523475377	0.1776983212981731	88.83152267820265	0	0.9399999999999999	0	45.02443328947848	-9.978271497718705	0	59.42696121626238	1.037196137678752	-4.986221370099078	0	0	45.02443328947848	-9.978271497718705	0	59.42696121626238	1.037196137678752	-4.986221370099078	0	0	-0.4415156394198124	-1.754161865862023	1.839451245522481	0	-13.15750596929936	0	75.25168636692401	45.02328229757303	0	0	-0.2753945450688183	-1.651351898617576	-14.48535589321432	77.68520946446654	45.02328229757303	0	0
53	-0.3779518528334848	0.5562006479864543	89.72209992108371	0	0.9399999999999999	0	45.02434071485187	-9.97847318785851	0	59.429102409945	1.037233508558437	-4.98637543106314	0	0	45.02434071485187	-9.97847318785851	0	59.429102409945	1.037233508558437	-4.98637543106314	0	0	-0.8592814799446127	-1.193359576231436	0.9536454302511495	0	-13.16172608986767	0	75.25073341924241	45.0230990356234	0	0	-1.90988856692789	-1.298630653903079	-13.94208032281914	77.02795154417768	45.0230990356234	0	0
54	-0.3766618782459	0.5483041290457367	89.72631769799435	0	0.9399999999999999	0	45.02421418387792	-9.978745568982054	0	59.4320357807278	1.037284705536779	-4.98658266343969	0	0	45.02421418387792	-9.978745568982054	0	59.4320357807278	1.037284705536779	-4.98658266343969	0	0	-0.8496754273254055	-1.194821312767901	0.95791125386457	0	-13.16751437027718	0	75.24943093075495	45.02285079715774	0	0	-1.965888263513033	-1.173478982372804	-13.62767054178256	71.21419273768883	45.02285079715774	0	0
55	-0.9366995398786495	0.1821072619545921	88.8234181491484	0	0.9399999999999999	0	45.02408303464831	-9.97902766266731	0	59.43506667504602	1.037337604621912	-4.986797124126293	0	0	45.02408303464831	-9.97902766266731	0	59.43506667504602	1.037337604621912	-4.986797124126293	0	0	-0.4494123613421068	-1.752819321529356	1.850999623286265	0	-13.17351174617351	0	75.24808090271128	45.02259359701592	0	0	-1.929035373354671	-1.255349482372215	-12.62084929902744	62.99150227566324	45.02259359701592	0	0
56	-0.9269392586185248	0.1667199112558905	88.83266042088648	0	0.9399999999999999	0	45.02396415596996	-9.979281402374717	0	59.43781514425039	1.037385574458918	-4.986989534707005	0	0	45.02396415596996	-9.979281402374717	0	59.43781514425039	1.037385574458918	-4.986989534707005	0	0	-0.4352847582609737	-1.746229199461626	1.848765959046353	0	-13.17896012075702	0	75.24685718573276	45.0223618018152	0	0	-1.896520109148167	-1.822676040693753	-11.13496169633622	54.20579141643403	45.0223618018152	0	0
57	-0.3797958185879002	0.5528781778775949	89.72245608646396	0	0.9399999999999999	0	45.02385420131868	-9.979517833301577	0	59.44034038030535	1.037429648142467	-4.987169103816123	0	0	45.02385420131868	-9.979517833301577	0	59.44034038030535	1.037429648142467	-4.987169103816123	0	0	-0.8529882823300258	-1.194921261226924	0.9558885321546722	0	-13.18398325802645	0	75.2457253310755	45.02214612987101	0	0	-1.845855092704746	-2.317051949317571	-8.69915394494417	45.05614819225878	45.02214612987101	0	0
58	-0.3774998463492563	0.5489178262848353	89.72943436393412	0	0.9399999999999999	0	45.0237204489498	-9.979811712685018	0	59.4433656746607	1.03748244948981	-4.987393320632788	0	0	45.0237204489498	-9.979811712685018	0	59.4433656746607	1.03748244948981	-4.987393320632788	0	0	-0.8536631308370799	-1.194829276266405	0.9580325555922812	0	-13.19003591204972	0	75.24434850637039	45.02187917119617	0	0	-0.3567221047872279	-1.288105075715351	-6.509864042099351	35.71753458412373	45.02187917119617	0	0
59	-0.9390195882734953	0.1836188320952305	88.83775637320021	0	0.9399999999999999	0	45.02363224502322	-9.98000077214459	0	59.44538272986356	1.037517653744294	-4.987536655179551	0	0	45.02363224502322	-9.98000077214459	0	59.44538272986356	1.037517653744294	-4.987536655179551	0	0	-0.4542232003186319	-1.753784654312546	1.84909220768279	0	-13.19406570499151	0	75.2434405500191	45.02170651690629	0	0	-0.6313851878055866	-0.8296248424240789	-4.594659141417371	28.51288280876542	45.02170651690629	0	0
60	-0.9280800750786876	0.1854410045165756	88.8408187762377	0	0.9399999999999999	0	45.02356191384301	-9.98015565999029	0	59.44697261018347	1.037545402390589	-4.98765500494759	0	0	45.02356191384301	-9.98015565999029	0	59.44697261018347	1.037545402390589	-4.98765500494759	0	0	-0.4597637658267791	-1.751312681572955	1.84717500960099	0	-13.19724966886142	0	75.24271657252896	45.02156595197171	0	0	0.7185873682744474	-0.1458054340001015	-3.850503263473622	19.22130239593025	45.02156595197171	0	0
61	-0.9286908687817574	0.1483617194577855	88.81920591372641	0	0.9399999999999999	0	45.02353215208902	-9.980228758710762	0	59.44761384347552	1.037556594022809	-4.987712484255748	0	0	45.02353215208902	-9.980228758710762	0	59.44761384347552	1.037556594022809	-4.987712484255748	0	0	-0.4012176268457304	-1.758053929733115	1.854231228828989	0	-13.19854296563227	0	75.24241020964649	45.0215011725383	0	0	1.443257584789794	0.3721232455702922	-2.509938935654754	10.40821567877776	45.0215011725383	0	0
62	-0.3853212760314961	0.5228200776848173	89.7234079131396	0	0.9399999999999999	0	45.02353504528357	-9.98023876013014	0	59.44747856878211	1.037554233034014	-4.987723600160733	0	0	45.02353504528357	-9.98023876013014	0	59.44747856878211	1.037554233034014	-4.987723600160733	0	0	-0.8017217697959876	-1.207312353856027	0.9566274429846673	0	-13.19829289198989	0	75.24243999098555	45.0214954468094	0	0	1.090172990980169	0.5793684111017433	-0.8836106540196335	2.778026659824445	45.0214954468094	0	0
63	-0.9248012408898572	0.1783388520083612	88.8328486040669	0	0.9399999999999999	0	45.02349195776779	-9.980335260759656	0	59.44844206491906	1.037571049213934	-4.987797590168588	0	0	45.02349195776779	-9.980335260759656	0	59.44844206491906	1.037571049213934	-4.987797590168588	0	0	-0.4472978669034112	-1.749894474513666	1.84556217063743	0	-13.20022921427701	0	75.24199645516937	45.02140815213454	0	0	-0.9668189821621578	0.06034105486498924	0.08380865346827766	0.06726315667172954	45.02140815213454	0	0
64	-0.9262033955777258	0.1827269701826006	88.83419213334925	0	0.9399999999999999	0	45.02348506106868	-9.980355488839143	0	59.44856891369817	1.037573263142782	-4.987813972048412	0	0	45.02348506106868	-9.980355488839143	0	59.44856891369817	1.037573263142782	-4.987813972048412	0	0	-0.4491953752164349	-1.749990928192993	1.845401799951875	0	-13.20049934659775	0	75.24192546143904	45.0213907414463	0	0	-2.060323607271788	-0.2398360314536876	-0.2188352131079455	0.04283226543571324	45.0213907414463	0	0
65	-0.380977985777639	0.5571838906447488	89.72683644921075	0	0.9399999999999999	0	45.02347742754031	-9.980377526753598	0	59.44871104461009	1.037575743795164	-4.987831762875415	0	0	45.02347742754031	-9.980377526753598	0	59.44871104461009	1.037575743795164	-4.987831762875415	0	0	-0.8562861598569741	-1.195446164245989	0.9566670503945484	0	-13.20080099946489	0	75.24184688289978	45.0213717187676	0	0	-1.553568507197666	-0.4690521712181921	0.0644567330239212	0.04854000359025844	45.0213717187676	0	0
66	-0.9262715014399148	0.1791075752719964	88.83889256627396	0	0.9399999999999999	0	45.02347179152353	-9.980393937700219	0	59.44881521262108	1.037577561869931	-4.987845030689119	0	0	45.02347179152353	-9.980393937700219	0	59.44881521262108	1.037577561869931	-4.987845030689119	0	0	-0.4543615964186938	-1.738096210077208	1.824877328116723	0	-13.2010225664501	0	75.24178886647614	45.02135757329238	0	0	-1.82757998656623	-0.8138127079514353	0.3244982446570445	0.04230864351458021	45.02135757329238	0	0
67	-0.9240574709639642	0.1682253015029876	88.83680134649623	0	0.9399999999999999	0	45.02346645194665	-9.980409532800369	0	59.44891360979576	1.037579279224603	-4.987857644187858	0	0	45.02346645194665	-9.980409532800369	0	59.44891360979576	1.037579279224603	-4.987857644187858	0	0	-0.4324534552860405	-1.742436535127827	1.839637616118948	0	-13.20123205302369	0	75.24173390156386	45.02134413709614	0	0	-1.504005573905002	-1.115939557128173	0.535246452712721	0.04693194560136048	45.02134413709614	0	0
68	-0.9266528251404559	0.1798937166615894	88.83538508574046	0	0.9399999999999999	0	45.02345920919122	-9.980430699148862	0	59.44904695061615	1.037581606460947	-4.987874763094163	0	0	45.02345920919122	-9.980430699148862	0	59.44904695061615	1.037581606460947	-4.987874763094163	0	0	-0.4464131626850107	-1.750324568777446	1.848732786012505	0	-13.20151603773798	0	75.24165934557725	45.02132590142568	0	0	-1.019052617282524	-1.057357394117997	-0.08588795123339329	0.057427481522968	45.02132590142568	0	0
69	-0.9305910186843753	0.1835826845021322	88.83665354608901	0	0.9399999999999999	0	45.0234513705042	-9.980453599476256	0	59.44919120504812	1.037584124175745	-4.987893279256595	0	0	45.0234513705042	-9.980453599476256	0	59.44919120504812	1.037584124175745	-4.987893279256595	0	0	-1.146411758212028	-2.064113893287631	1.519597654605492	0	-13.20182333517845	0	75.2415786551482	45.02130616857629	0	0	-0.3177043110778503	-1.340999178638027	-0.3954346295870536	0.05733598735384207	45.02130616857629	0	0
70	-0.9253613152716821	0.1934849732475614	88.83357316578279	0	0.9399999999999999	0	45.02344956667255	-9.980458862651982	0	59.44922440431404	1.037584703612245	-4.987897532593912	0	0	45.02344956667255	-9.980458862651982	0	59.44922440431404	1.037584703612245	-4.987897532593912	0	0	-1.136407367785935	-2.062600435441221	1.520362580479277	0	-13.20189406266317	0	75.24156008673904	45.02130163170583	0	0	-0.3464588280713857	-1.348529158853716	-0.3974986432360988	0.05791286522674275	45.02130163170583	0	0
71	-0.9315984329121482	0.1622372449778614	88.83522050475517	0	0.9399999999999999	0	45.0234444493015	-9.980473757692705	0	59.44931880509936	1.037586351216765	-4.987909565224744	0	0	45.0234444493015	-9.980473757692705	0	59.44931880509936	1.037586351216765	-4.987909565224744	0	0	-1.116531209585316	-2.066739235099258	1.514521469243068	0	-13.20209504448842	0	75.2415074091867	45.02128878734302	0	0	-0.02732643826711043	-1.16080679673318	-0.09452523602645489	0.06877134114837055	45.02128878734302	0	0
72	-0.9256664081081685	0.1777605896979449	88.83136941588498	0	0.9399999999999999	0	45.02343727358204	-9.980494558153438	0	59.44945153351299	1.037588667764594	-4.987926351836052	0	0	45.02343727358204	-9.980494558153438	0	59.44945153351299	1.037588667764594	-4.987926351836052	0	0	-0.838710108987379	-2.731905186899637	0.7111216021642127	0	-13.20237743716481	0	75.24143354326748	45.0212708357993	0	0	-0.3321495885255316	-1.835983308601798	-0.916362765833066	0.06863803698317146	45.0212708357993	0	0
73	-0.926416482387893	0.1778556328445272	88.83242704120738	0	0.9399999999999999	0	45.02343414773036	-9.980503679828685	0	59.44950901046865	1.037589670926714	-4.987933721473742	0	0	45.02343414773036	-9.980503679828685	0	59.44950901046865	1.037589670926714	-4.987933721473742	0	0	-0.8369250300879905	-2.734556145437046	0.7096897175784737	0	-13.20249994190852	0	75.24140136615543	45.02126297200476	0	0	-0.3392058974342991	-1.837561917577307	-0.917074094564562	0.06886566038811523	45.02126297200476	0	0
